<svg viewBox="0 0 1440 456" height="456" width="1440" xmlns="http://www.w3.org/2000/svg" version="1.1"><rect x="0" y="0" width="1440" height="456" fill="#F7F9FC"></rect><g transform-origin="720 228" transform="scale(1, 1)"><linearGradient id="linear-gradient-r6"><stop offset="0%" stop-color="#B3B8D0" stop-opacity="100%"></stop><stop offset="100%" stop-color="#DDE0EE" stop-opacity="100%"></stop></linearGradient><filter id="shadow-r6" x="-20%" width="150%" y="-20%" height="150%"><feDropShadow dx="-2" dy="0" stdDeviation="6" flood-color="#535479"></feDropShadow></filter><path d="M0 0 0,608.261966024673 C 48.347498219668864,574.7570710394073 153.6467178033471,514.0991110082817 241.73749109834432,440.7374910983443 C 329.82826439334156,367.3758711884069 366.4292504806065,329.601364694655 440.45386647498606,241.45386647498609 C 514.4784824693655,153.3063682553172 577.5792301511908,48.29077329499722 611.8605710702419,0 L0 0Z" fill="none" stroke-linecap="round" filter="url(#shadow-r6)" stroke-width="1" style="transition: all 0.4s cubic-bezier(0.16, 1, 0.3, 1) 0s; fill: url(&quot;#linear-gradient-r6&quot;);"></path><path d="M0 0 0,514.1174178647594 C 40.551296331942204,485.24523062374976 128.11126089446833,431.3347444674202 202.75648165971103,369.756481659711 C 277.4017024249537,308.17821885200186 311.0449536884932,280.1774001581558 373.2261038262136,206.22610382621363 C 435.407253963934,132.2748074942714 485.57500664389323,41.245220765242735 513.6622323483132,0 L0 0Z" fill="none" stroke-linecap="round" filter="url(#shadow-r6)" stroke-width="1" style="transition: all 0.4s cubic-bezier(0.16, 1, 0.3, 1) 0s; fill: url(&quot;#linear-gradient-r6&quot;);"></path><path d="M0 0 0,418.5554581066616 C 33.57691784040482,395.6212843257341 107.7573691961686,354.6684608175009 167.88458920202405,303.884589202024 C 228.0118092078795,253.10071758654715 250.8261013584388,225.41301786968214 300.6361000292773,164.63610002927732 C 350.4460987001159,103.85918218887251 393.6748860508289,32.92722000585547 416.9345825562168,0 L0 0Z" fill="none" stroke-linecap="round" filter="url(#shadow-r6)" stroke-width="1" style="transition: all 0.4s cubic-bezier(0.16, 1, 0.3, 1) 0s; fill: url(&quot;#linear-gradient-r6&quot;);"></path></g><g transform-origin="720 228" transform="scale(-1, -1)"><linearGradient id="linear-gradient-r6"><stop offset="0%" stop-color="#B3B8D0" stop-opacity="100%"></stop><stop offset="100%" stop-color="#DDE0EE" stop-opacity="100%"></stop></linearGradient><filter id="shadow-r6" x="-20%" width="150%" y="-20%" height="150%"><feDropShadow dx="-2" dy="0" stdDeviation="6" flood-color="#535479"></feDropShadow></filter><path d="M0 0 0,611.8605710702419 C 48.167601559686666,577.4560584158802 153.53386790553333,514.7059821195817 240.8380077984333,439.8380077984333 C 328.1421476913333,364.9700334772849 364.5293349928546,325.4883010241866 436.52069946449996,237.52069946449996 C 508.5120639361453,149.55309790481328 567.940004018228,47.5041398929 600.79483015666,0 L0 0Z" fill="none" stroke-linecap="round" filter="url(#shadow-r6)" stroke-width="1" style="transition: all 0.4s cubic-bezier(0.16, 1, 0.3, 1) 0s; fill: url(&quot;#linear-gradient-r6&quot;);"></path><path d="M0 0 0,508.2023872862449 C 38.772223746460426,478.7341335754564 120.6543230508712,422.6948005081202 193.86111873230215,360.86111873230215 C 267.0679144137331,299.0274369564841 302.43848485547875,271.2062021536152 366.0339784071548,199.0339784071548 C 429.62947195883083,126.86175466069437 482.6776648739768,39.80679568143096 511.83858649068236,0 L0 0Z" fill="none" stroke-linecap="round" filter="url(#shadow-r6)" stroke-width="1" style="transition: all 0.4s cubic-bezier(0.16, 1, 0.3, 1) 0s; fill: url(&quot;#linear-gradient-r6&quot;);"></path><path d="M0 0 0,414.9543649738722 C 32.584253162951526,391.74774514204927 103.4658450312289,349.6567180260034 162.9212658147576,298.9212658147576 C 222.37668659828628,248.18581360351183 246.95434629857994,221.06135708059497 297.27710391764344,161.27710391764342 C 347.59986153670695,101.49285075469189 391.0834639115888,32.255420783528685 414.53505391007513,0 L0 0Z" fill="none" stroke-linecap="round" filter="url(#shadow-r6)" stroke-width="1" style="transition: all 0.4s cubic-bezier(0.16, 1, 0.3, 1) 0s; fill: url(&quot;#linear-gradient-r6&quot;);"></path></g></svg>