<svg width="40" height="41" viewBox="0 0 40 41" fill="none" xmlns="http://www.w3.org/2000/svg">
    <path d="M34.9598 4.5L21.8198 14.22L24.2698 8.49L34.9598 4.5Z" fill="#E17726" stroke="#E17726" stroke-width="0.25"
        stroke-linecap="round" stroke-linejoin="round" />
    <path
        d="M4.66002 4.5L17.68 14.3L15.35 8.5L4.66002 4.5ZM30.23 27.03L26.73 32.37L34.22 34.43L36.36 27.15L30.23 27.03ZM3.27002 27.15L5.40002 34.43L12.87 32.37L9.39002 27.03L3.27002 27.15Z"
        fill="#E27625" stroke="#E27625" stroke-width="0.25" stroke-linecap="round" stroke-linejoin="round" />
    <path
        d="M12.4701 18.0099L10.3901 21.1499L17.7901 21.4899L17.5501 13.5199L12.4701 18.0199V18.0099ZM27.1501 18.0199L21.9901 13.4199L21.8201 21.4899L29.2201 21.1499L27.1501 18.0199ZM12.8701 32.3699L17.3601 30.2099L13.5001 27.2099L12.8701 32.3699ZM22.2701 30.1999L26.7301 32.3699L26.1301 27.1999L22.2701 30.1999Z"
        fill="#E27625" stroke="#E27625" stroke-width="0.25" stroke-linecap="round" stroke-linejoin="round" />
    <path
        d="M26.7301 32.37L22.2701 30.21L22.6301 33.11L22.5901 34.34L26.7301 32.37ZM12.8701 32.37L17.0301 34.34L17.0001 33.11L17.3601 30.21L12.8701 32.37Z"
        fill="#D5BFB2" stroke="#D5BFB2" stroke-width="0.25" stroke-linecap="round" stroke-linejoin="round" />
    <path
        d="M17.0999 25.2802L13.3999 24.2002L16.0199 23.0002L17.1099 25.2802H17.0999ZM22.5099 25.2802L23.6099 22.9902L26.2399 24.1902L22.5099 25.2902V25.2802Z"
        fill="#0E0B3D" stroke="#0E0B3D" stroke-width="0.25" stroke-linecap="round" stroke-linejoin="round" />
    <path
        d="M12.8701 32.3699L13.5201 27.0299L9.39014 27.1499L12.8701 32.3699ZM26.1001 27.0299L26.7301 32.3699L30.2301 27.1499L26.1001 27.0299ZM29.2301 21.1499L21.8301 21.4899L22.5101 25.2899L23.6101 22.9899L26.2401 24.1899L29.2301 21.1499ZM13.4001 24.1999L16.0201 22.9999L17.1101 25.2799L17.8001 21.4799L10.4001 21.1499L13.4001 24.1999Z"
        fill="#CC6228" stroke="#CC6228" stroke-width="0.25" stroke-linecap="round" stroke-linejoin="round" />
    <path
        d="M10.3999 21.1499L13.4999 27.1999L13.3999 24.1999L10.3999 21.1499ZM26.2399 24.1999L26.1199 27.1999L29.2199 21.1499L26.2399 24.1999ZM17.7999 21.4899L17.0999 25.2899L17.9799 29.7699L18.1799 23.8599L17.7999 21.4899ZM21.8199 21.4899L21.4599 23.8499L21.6399 29.7699L22.5099 25.2799L21.8199 21.4799V21.4899Z"
        fill="#E27525" stroke="#E27525" stroke-width="0.25" stroke-linecap="round" stroke-linejoin="round" />
    <path
        d="M22.5101 25.2802L21.6401 29.7702L22.2701 30.2102L26.1201 27.2102L26.2401 24.2002L22.5101 25.2802ZM13.4001 24.2002L13.5001 27.2002L17.3601 30.2002L17.9801 29.7702L17.1101 25.2802L13.3901 24.2002H13.4001Z"
        fill="#F5841F" stroke="#F5841F" stroke-width="0.25" stroke-linecap="round" stroke-linejoin="round" />
    <path
        d="M22.6001 34.3401L22.6301 33.1101L22.2901 32.8301H17.3301L17.0001 33.1101L17.0301 34.3401L12.8701 32.3701L14.3301 33.5701L17.2801 35.6001H22.3301L25.2901 33.5601L26.7301 32.3701L22.5901 34.3401H22.6001Z"
        fill="#C0AC9D" stroke="#C0AC9D" stroke-width="0.25" stroke-linecap="round" stroke-linejoin="round" />
    <path d="M22.27 30.2L21.64 29.77H17.98L17.36 30.21L17 33.11L17.33 32.83H22.29L22.63 33.11L22.27 30.21V30.2Z"
        fill="#0E0B3D" stroke="#0E0B3D" stroke-width="0.25" stroke-linecap="round" stroke-linejoin="round" />
    <path
        d="M35.52 14.85L36.62 9.5L34.96 4.5L22.26 13.9L27.15 18.01L34.05 20.02L35.57 18.25L34.91 17.77L35.96 16.81L35.16 16.19L36.21 15.39L35.51 14.85H35.52ZM3 9.49L4.12 14.85L3.4 15.38L4.47 16.18L3.67 16.81L4.71 17.77L4.05 18.25L5.57 20.02L12.47 18.02L17.36 13.89L4.66 4.5L3 9.49Z"
        fill="#763E1A" stroke="#763E1A" stroke-width="0.25" stroke-linecap="round" stroke-linejoin="round" />
    <path
        d="M34.05 20.0202L27.15 18.0202L29.23 21.1502L26.13 27.2002L30.23 27.1502H36.36L34.05 20.0202ZM12.47 18.0102L5.57002 20.0202L3.27002 27.1502H9.40002L13.5 27.2002L10.4 21.1502L12.48 18.0102H12.47ZM21.82 21.4902L22.27 13.8902L24.27 8.49023H15.35L17.35 13.8902L17.8 21.4902L17.97 23.8702V29.7702H21.64L21.66 23.8702L21.82 21.4902Z"
        fill="#F5841F" stroke="#F5841F" stroke-width="0.25" stroke-linecap="round" stroke-linejoin="round" />
</svg>