<svg xmlns="http://www.w3.org/2000/svg" width="32" height="32" viewBox="0 0 133 133"> <g id="SvgjsG4370" featurekey="symbolContainer" transform="matrix(1.2127938330324466,0,0,1.2127938330324466,-0.045499301899260686,3.034771079203341)" fill="white"> <path xmlns="http://www.w3.org/2000/svg" d="M104.6 41.3a52.2 52.2 0 0 0-3.5-11.2A51.1 51.1 0 0 0 44.3 1a49.6 49.6 0 0 0-5.7 1.5 49.1 49.1 0 0 0-7.9 2.7A51.6 51.6 0 0 0 6.3 77a53.7 53.7 0 0 0 4.1 6.4 57 57 0 0 0 5 5.7 51.7 51.7 0 0 0 55.3 11.5l3.3-1.4 3-1.5a50.9 50.9 0 0 0 5.8-3.8l2.7-2.1 1.2-1.1 1.1-.9 2-1.8.7-.6.6-.7 1.8-2a48.5 48.5 0 0 0 5.9-8.3 50.4 50.4 0 0 0 5.6-14.7 51.6 51.6 0 0 0 .2-20.4zM87.1 88.6l-1.2 1.1-1.2 1.1-2.6 2.1a49.5 49.5 0 0 1-5.7 3.6l-3 1.5-3.2 1.3-4.9 1.6h-.5a50.9 50.9 0 0 1-20.3.1 51.8 51.8 0 0 1-11.1-3.6A50.5 50.5 0 0 1 22.9 91a52 52 0 0 1-9.1-9.4 50.3 50.3 0 0 1-3.7-5.7c-.6-1-1.1-2-1.6-3.1s-1-2.1-1.3-3.2a50.6 50.6 0 0 1 8.6-50.8l.8-.8.5-.6.6-.6 1.2-1.1 2.4-2.1A50.5 50.5 0 0 1 62.4 3.2a48.5 48.5 0 0 1 14.7 5.2 47 47 0 0 1 8.3 5.8l2 1.8.7.6.6.7 1.8 2a49.7 49.7 0 0 1 11.3 22.9 50.8 50.8 0 0 1-.1 20.2 51.6 51.6 0 0 1-3.6 11 50.2 50.2 0 0 1-6.6 10.5l-2.1 2.4zm-44.9 13a50.1 50.1 0 0 1-13.7-5 51.8 51.8 0 0 1-6.2-4 55.2 55.2 0 0 1-5.5-4.8 49.9 49.9 0 0 1-11-53.2c.4-1.1.9-2.1 1.3-3.1l.6-1.3a50.2 50.2 0 0 0-3.4 11 51.3 51.3 0 0 0 2.4 28.5c.4 1.1.9 2.2 1.4 3.2s1 2.1 1.6 3.1a50.6 50.6 0 0 0 3.7 5.8 51.5 51.5 0 0 0 9.2 9.5 50.9 50.9 0 0 0 10.7 6.5 51 51 0 0 0 28.7 3.9 50.3 50.3 0 0 1-19.8-.1zm61.9-39.9a50.2 50.2 0 0 1-5.5 14.7 48.4 48.4 0 0 1-5.8 8.3l-1.8 2-.6.7-.7.6-1.9 1.7h.2l2.3-2.4 2.1-2.5A51.3 51.3 0 0 0 98.9 74a51.4 51.4 0 0 0 3.2-31.6 49.6 49.6 0 0 0-2.5-8.2 49.4 49.4 0 0 0-3.1-6.5 48.7 48.7 0 0 0-5.9-8.3l-1.8-2-.6-.7-.7-.6-2-1.8A49.9 49.9 0 0 0 77.3 8a49.3 49.3 0 0 0-6.5-3.2 49.8 49.8 0 0 0-8.2-2.6A52.2 52.2 0 0 0 49.9 1a50.8 50.8 0 0 1 22.7 3.2l3.2 1.3 3.1 1.6a50.1 50.1 0 0 1 5.7 3.7l2.6 2.1 1.2 1.1 1.2 1.1 2.3 2.3 2.1 2.4a50.4 50.4 0 0 1 6.5 10.5 51.6 51.6 0 0 1 3.6 11 51.1 51.1 0 0 1 0 20.3z"> </path> </g> <g id="SvgjsG4371" featurekey="monogramFeature-0" transform="matrix(2.2754760521605037,0,0,2.2754760521605037,23.890510010392433,-39.729814127587986)" fill="white"> <path d="M13.2 26.46 c-1.68 3.84 -5.88 16.62 -8.16 25.2 c-2.16 7.98 -3.42 15.06 -3.54 19.08 c-0.06 1.68 -0.18 4.44 1.32 4.44 c2.46 0 10.74 -5.76 19.5 -20.46 c8.94 -15.06 11.7 -27.9 11.46 -33.78 c-0.12 -1.68 -0.54 -2.52 -1.38 -2.52 c-0.42 0 -0.96 0.6 -1.2 0.96 s-0.36 0.66 -0.54 0.66 c-0.42 0 -0.48 -0.6 -0.18 -1.14 c0.42 -0.9 1.02 -1.38 2.04 -1.44 c1.56 0 2.58 1.74 2.64 3.24 c0.6 7.92 -4.8 24.24 -11.52 34.8 c-6.54 10.32 -15.84 20.52 -20.82 20.52 c-2.1 0 -2.88 -2.28 -2.76 -5.04 c0.24 -4.74 1.62 -12.66 3.54 -19.92 c1.92 -7.32 6.54 -20.34 8.22 -24.24 c0.78 -1.74 1.62 -0.9 1.38 -0.36 z"> </path> </g> </svg>