<svg xmlns="http://www.w3.org/2000/svg" width="396" height="151.63146037409837" viewBox="0 0 348 133.2518894196622"><defs id="SvgjsDefs4369"><linearGradient id="SvgjsLinearGradient4378"><stop id="SvgjsStop4379" stop-color="#945f50" offset="0"></stop><stop id="SvgjsStop4380" stop-color="#fcc5b3" offset="0.5"></stop><stop id="SvgjsStop4381" stop-color="#945f50" offset="1"></stop></linearGradient><linearGradient id="SvgjsLinearGradient4382"><stop id="SvgjsStop4383" stop-color="#945f50" offset="0"></stop><stop id="SvgjsStop4384" stop-color="#fcc5b3" offset="0.5"></stop><stop id="SvgjsStop4385" stop-color="#945f50" offset="1"></stop></linearGradient><linearGradient id="SvgjsLinearGradient4386"><stop id="SvgjsStop4387" stop-color="#945f50" offset="0"></stop><stop id="SvgjsStop4388" stop-color="#fcc5b3" offset="0.5"></stop><stop id="SvgjsStop4389" stop-color="#945f50" offset="1"></stop></linearGradient></defs><g id="SvgjsG4370" featurekey="symbolContainer" transform="matrix(1.2127938330324466,0,0,1.2127938330324466,-0.045499301899260686,3.034771079203341)" fill="url(#SvgjsLinearGradient4378)"><path xmlns="http://www.w3.org/2000/svg" d="M104.6 41.3a52.2 52.2 0 0 0-3.5-11.2A51.1 51.1 0 0 0 44.3 1a49.6 49.6 0 0 0-5.7 1.5 49.1 49.1 0 0 0-7.9 2.7A51.6 51.6 0 0 0 6.3 77a53.7 53.7 0 0 0 4.1 6.4 57 57 0 0 0 5 5.7 51.7 51.7 0 0 0 55.3 11.5l3.3-1.4 3-1.5a50.9 50.9 0 0 0 5.8-3.8l2.7-2.1 1.2-1.1 1.1-.9 2-1.8.7-.6.6-.7 1.8-2a48.5 48.5 0 0 0 5.9-8.3 50.4 50.4 0 0 0 5.6-14.7 51.6 51.6 0 0 0 .2-20.4zM87.1 88.6l-1.2 1.1-1.2 1.1-2.6 2.1a49.5 49.5 0 0 1-5.7 3.6l-3 1.5-3.2 1.3-4.9 1.6h-.5a50.9 50.9 0 0 1-20.3.1 51.8 51.8 0 0 1-11.1-3.6A50.5 50.5 0 0 1 22.9 91a52 52 0 0 1-9.1-9.4 50.3 50.3 0 0 1-3.7-5.7c-.6-1-1.1-2-1.6-3.1s-1-2.1-1.3-3.2a50.6 50.6 0 0 1 8.6-50.8l.8-.8.5-.6.6-.6 1.2-1.1 2.4-2.1A50.5 50.5 0 0 1 62.4 3.2a48.5 48.5 0 0 1 14.7 5.2 47 47 0 0 1 8.3 5.8l2 1.8.7.6.6.7 1.8 2a49.7 49.7 0 0 1 11.3 22.9 50.8 50.8 0 0 1-.1 20.2 51.6 51.6 0 0 1-3.6 11 50.2 50.2 0 0 1-6.6 10.5l-2.1 2.4zm-44.9 13a50.1 50.1 0 0 1-13.7-5 51.8 51.8 0 0 1-6.2-4 55.2 55.2 0 0 1-5.5-4.8 49.9 49.9 0 0 1-11-53.2c.4-1.1.9-2.1 1.3-3.1l.6-1.3a50.2 50.2 0 0 0-3.4 11 51.3 51.3 0 0 0 2.4 28.5c.4 1.1.9 2.2 1.4 3.2s1 2.1 1.6 3.1a50.6 50.6 0 0 0 3.7 5.8 51.5 51.5 0 0 0 9.2 9.5 50.9 50.9 0 0 0 10.7 6.5 51 51 0 0 0 28.7 3.9 50.3 50.3 0 0 1-19.8-.1zm61.9-39.9a50.2 50.2 0 0 1-5.5 14.7 48.4 48.4 0 0 1-5.8 8.3l-1.8 2-.6.7-.7.6-1.9 1.7h.2l2.3-2.4 2.1-2.5A51.3 51.3 0 0 0 98.9 74a51.4 51.4 0 0 0 3.2-31.6 49.6 49.6 0 0 0-2.5-8.2 49.4 49.4 0 0 0-3.1-6.5 48.7 48.7 0 0 0-5.9-8.3l-1.8-2-.6-.7-.7-.6-2-1.8A49.9 49.9 0 0 0 77.3 8a49.3 49.3 0 0 0-6.5-3.2 49.8 49.8 0 0 0-8.2-2.6A52.2 52.2 0 0 0 49.9 1a50.8 50.8 0 0 1 22.7 3.2l3.2 1.3 3.1 1.6a50.1 50.1 0 0 1 5.7 3.7l2.6 2.1 1.2 1.1 1.2 1.1 2.3 2.3 2.1 2.4a50.4 50.4 0 0 1 6.5 10.5 51.6 51.6 0 0 1 3.6 11 51.1 51.1 0 0 1 0 20.3z"></path></g><g id="SvgjsG4371" featurekey="monogramFeature-0" transform="matrix(2.2754760521605037,0,0,2.2754760521605037,23.890510010392433,-39.729814127587986)" fill="url(#SvgjsLinearGradient4382)"><path d="M13.2 26.46 c-1.68 3.84 -5.88 16.62 -8.16 25.2 c-2.16 7.98 -3.42 15.06 -3.54 19.08 c-0.06 1.68 -0.18 4.44 1.32 4.44 c2.46 0 10.74 -5.76 19.5 -20.46 c8.94 -15.06 11.7 -27.9 11.46 -33.78 c-0.12 -1.68 -0.54 -2.52 -1.38 -2.52 c-0.42 0 -0.96 0.6 -1.2 0.96 s-0.36 0.66 -0.54 0.66 c-0.42 0 -0.48 -0.6 -0.18 -1.14 c0.42 -0.9 1.02 -1.38 2.04 -1.44 c1.56 0 2.58 1.74 2.64 3.24 c0.6 7.92 -4.8 24.24 -11.52 34.8 c-6.54 10.32 -15.84 20.52 -20.82 20.52 c-2.1 0 -2.88 -2.28 -2.76 -5.04 c0.24 -4.74 1.62 -12.66 3.54 -19.92 c1.92 -7.32 6.54 -20.34 8.22 -24.24 c0.78 -1.74 1.62 -0.9 1.38 -0.36 z"></path></g><g id="SvgjsG4372" featurekey="nameFeature-0" transform="matrix(1.8365809765089507,0,0,1.8365809765089507,147.26536830999646,6.961031784892807)" fill="currentColor"><path d="M22.68 12 l4.72 0 l-11.16 28 l-4.68 0 l-11.16 -28 l4.76 0 l8.76 22.6 z M40.326 12 c8.4 0 13.6 5.88 13.6 14 c0 8.08 -5.12 14 -13.6 14 l-11.4 0 l0 -28 l11.4 0 z M40.246 36.08 c5.8 0 9.32 -4.28 9.32 -10.16 c0 -5.76 -3.52 -10 -9.32 -10 l-7 0 l0 20.16 l7 0 z M75.77199999999999 12 l4.36 0 l0 28 l-3.64 0 l-15.52 -20.28 l0 20.28 l-4.36 0 l0 -28 l3.64 0 l15.52 20.28 l0 -20.28 z M104.77799999999999 40 l-2.68 -6.8 l-13.32 0 l-2.68 6.8 l-4.52 0 l11.08 -28 l5.56 0 l11.08 28 l-4.52 0 z M90.258 29.36 l10.36 0 l-5.16 -13.24 z"></path></g><g id="SvgjsG4373" featurekey="sloganFeature-0" transform="matrix(0.3094837117408754,0,0,0.3094837117408754,167.83386902453435,98.14128700475128)" fill="url(#SvgjsLinearGradient4386)"><path d="M10.654 6.191000000000001 l2.0508 0 l-5.0781 13.809 l-2.0313 0 l-5.0586 -13.809 l2.041 0 l4.043 11.426 z M17.652578515625 20 l0 -13.809 l1.9434 0 l0 13.809 l-1.9434 0 z M33.46921328125 6.191000000000001 l0 1.748 l-3.4961 0 l0 12.061 l-1.9238 0 l0 -12.061 l-3.5059 0 l0 -1.748 l8.9258 0 z M45.916773046875 7.939 l-5.5273 0 l0 4.2969 l4.873 0 l0 1.7383 l-4.873 0 l0 4.2676 l5.5273 0 l0 1.7578 l-7.5098 0 l0 -13.809 l7.5098 0 l0 1.748 z M55.8447453125 20.18555 c-2.8809 0 -4.9902 -1.377 -5.459 -3.7207 l1.9824 -0.46875 c0.3125 1.6113 1.709 2.5391 3.5449 2.5391 c1.4746 0 2.8906 -0.60547 2.8613 -2.2656 c-0.019531 -1.6406 -1.7969 -2.0898 -3.6816 -2.6074 c-2.1387 -0.58594 -4.2773 -1.2598 -4.2773 -3.7988 c0 -2.5684 2.1191 -3.8574 4.6289 -3.8574 c2.4316 0 4.6191 1.0254 5.1367 3.3984 l-1.8848 0.47852 c-0.3418 -1.5332 -1.6211 -2.2168 -3.1641 -2.2168 c-1.3867 0 -2.7637 0.60547 -2.7637 2.1777 c0 1.4258 1.543 1.8457 3.291 2.3145 c2.1973 0.5957 4.7168 1.2793 4.7168 4.0527 c0 2.793 -2.3438 3.9746 -4.9316 3.9746 z M73.790308203125 7.939 l-5.5273 0 l0 4.2969 l4.873 0 l0 1.7383 l-4.873 0 l0 4.2676 l5.5273 0 l0 1.7578 l-7.5098 0 l0 -13.809 l7.5098 0 l0 1.748 z M86.90188046875 7.939 l-5.5273 0 l0 4.2969 l4.873 0 l0 1.7383 l-4.873 0 l0 4.2676 l5.5273 0 l0 1.7578 l-7.5098 0 l0 -13.809 l7.5098 0 l0 1.748 z M100.00975625 20 l0 -13.809 l4.5508 0 c4.248 0 6.4063 2.8516 6.4063 6.8945 c0 4.0723 -2.1582 6.9141 -6.4063 6.9141 l-4.5508 0 z M101.95315625 18.2422 l2.5293 0 c3.0176 0 4.4531 -2.002 4.4531 -5.1563 c0 -3.1348 -1.4355 -5.1465 -4.4531 -5.1465 l-2.5293 0 l0 10.303 z M124.078394140625 7.939 l-5.5273 0 l0 4.2969 l4.873 0 l0 1.7383 l-4.873 0 l0 4.2676 l5.5273 0 l0 1.7578 l-7.5098 0 l0 -13.809 l7.5098 0 l0 1.748 z M135.62746640625 20.18555 c-3.916 0 -6.9043 -2.6855 -6.9043 -7.0996 c0 -4.3945 2.9883 -7.0801 6.9043 -7.0801 c2.793 0 5.1074 1.3867 6.1719 3.7598 l-1.7969 0.71289 c-0.80078 -1.6895 -2.4316 -2.6367 -4.375 -2.6367 c-2.7734 0 -4.9707 1.9141 -4.9707 5.2441 c0 3.3496 2.1973 5.2637 4.9707 5.2637 c1.9434 0 3.5742 -0.94727 4.375 -2.6367 l1.7969 0.72266 c-1.0645 2.3633 -3.3789 3.75 -6.1719 3.75 z M154.520288671875 7.939 l-5.5273 0 l0 4.2969 l4.873 0 l0 1.7383 l-4.873 0 l0 4.2676 l5.5273 0 l0 1.7578 l-7.5098 0 l0 -13.809 l7.5098 0 l0 1.748 z M169.4284609375 6.191000000000001 l1.9336 0 l0 13.809 l-2.0996 0 l-7.2168 -10.957 l0 10.957 l-1.9238 0 l0 -13.809 l2.0801 0 l7.2266 10.908 l0 -10.908 z M185.225805078125 6.191000000000001 l0 1.748 l-3.4961 0 l0 12.061 l-1.9238 0 l0 -12.061 l-3.5059 0 l0 -1.748 l8.9258 0 z M197.61476484375 20 l-3.5742 -6.2109 l-1.9336 0 l0 6.2109 l-1.9434 0 l0 -13.809 l4.6484 0 c2.8906 0 4.209 1.7676 4.209 3.9355 c0 1.9238 -1.1328 3.2617 -3.0273 3.584 l3.8965 6.2891 l-2.2754 0 z M192.10696484375 7.871 l0 4.4336 l2.4414 0 c1.7969 0 2.6074 -0.89844 2.6074 -2.207 c0 -1.2891 -0.81055 -2.2266 -2.6074 -2.2266 l-2.4414 0 z M213.968349609375 20 l-1.1523 -3.2227 l-6.1719 0 l-1.1523 3.2227 l-2.0215 0 l5.0879 -13.809 l2.3438 0 l5.0879 13.809 l-2.0215 0 z M207.249749609375 15.0781 l4.9609 0 l-2.4805 -6.9629 z M222.880890625 18.2422 l4.7168 0 l0 1.7578 l-6.6602 0 l0 -13.809 l1.9434 0 l0 12.051 z M232.545156640625 20 l0 -13.809 l1.9434 0 l0 13.809 l-1.9434 0 z M242.23879140625 18.2422 l7.8027 0 l0 1.7578 l-10.186 0 l0 -1.5723 l7.627 -10.488 l-7.6074 0 l0 -1.748 l9.9316 0 l0 1.5918 z M262.860132421875 7.939 l-5.5273 0 l0 4.2969 l4.873 0 l0 1.7383 l-4.873 0 l0 4.2676 l5.5273 0 l0 1.7578 l-7.5098 0 l0 -13.809 l7.5098 0 l0 1.748 z M268.4619046875 20 l0 -13.809 l4.5508 0 c4.248 0 6.4063 2.8516 6.4063 6.8945 c0 4.0723 -2.1582 6.9141 -6.4063 6.9141 l-4.5508 0 z M270.4053046875 18.2422 l2.5293 0 c3.0176 0 4.4531 -2.002 4.4531 -5.1563 c0 -3.1348 -1.4355 -5.1465 -4.4531 -5.1465 l-2.5293 0 l0 10.303 z M301.83324609375 6.191000000000001 l1.9336 0 l0 13.809 l-2.0996 0 l-7.2168 -10.957 l0 10.957 l-1.9238 0 l0 -13.809 l2.0801 0 l7.2266 10.908 l0 -10.908 z M317.786890234375 7.939 l-5.5273 0 l0 4.2969 l4.873 0 l0 1.7383 l-4.873 0 l0 4.2676 l5.5273 0 l0 1.7578 l-7.5098 0 l0 -13.809 l7.5098 0 l0 1.748 z M321.7968725 20 l5.3809 -7.207 l-5.1465 -6.6016 l2.3535 0 l3.9551 5.2148 l3.9355 -5.2148 l2.3633 0 l-5.1563 6.6016 l5.3809 7.207 l-2.4609 0 l-4.0625 -5.6934 l-4.0723 5.6934 l-2.4707 0 z M347.144750390625 6.191000000000001 l0 1.748 l-3.4961 0 l0 12.061 l-1.9238 0 l0 -12.061 l-3.5059 0 l0 -1.748 l8.9258 0 z M368.524013671875 20 l-1.1523 -3.2227 l-6.1719 0 l-1.1523 3.2227 l-2.0215 0 l5.0879 -13.809 l2.3438 0 l5.0879 13.809 l-2.0215 0 z M361.805413671875 15.0781 l4.9609 0 l-2.4805 -6.9629 z M380.8154546875 6.191000000000001 c2.5293 0 4.1602 1.9141 4.1602 4.2773 c0 2.3926 -1.6309 4.2383 -4.1602 4.2383 l-3.3789 0 l0 5.293 l-1.9434 0 l0 -13.809 l5.3223 0 z M380.5224546875 13.0273 c1.6211 0 2.5293 -1.0449 2.5293 -2.5879 c0 -1.4844 -0.9082 -2.5781 -2.5293 -2.5781 l-3.0859 0 l0 5.166 l3.0859 0 z M395.567651953125 6.191000000000001 c2.5293 0 4.1602 1.9141 4.1602 4.2773 c0 2.3926 -1.6309 4.2383 -4.1602 4.2383 l-3.3789 0 l0 5.293 l-1.9434 0 l0 -13.809 l5.3223 0 z M395.274651953125 13.0273 c1.6211 0 2.5293 -1.0449 2.5293 -2.5879 c0 -1.4844 -0.9082 -2.5781 -2.5293 -2.5781 l-3.0859 0 l0 5.166 l3.0859 0 z M406.94094921875 18.2422 l4.7168 0 l0 1.7578 l-6.6602 0 l0 -13.809 l1.9434 0 l0 12.051 z M416.605215234375 20 l0 -13.809 l1.9434 0 l0 13.809 l-1.9434 0 z M431.01565 20.18555 c-3.916 0 -6.9043 -2.6855 -6.9043 -7.0996 c0 -4.3945 2.9883 -7.0801 6.9043 -7.0801 c2.793 0 5.1074 1.3867 6.1719 3.7598 l-1.7969 0.71289 c-0.80078 -1.6895 -2.4316 -2.6367 -4.375 -2.6367 c-2.7734 0 -4.9707 1.9141 -4.9707 5.2441 c0 3.3496 2.1973 5.2637 4.9707 5.2637 c1.9434 0 3.5742 -0.94727 4.375 -2.6367 l1.7969 0.72266 c-1.0645 2.3633 -3.3789 3.75 -6.1719 3.75 z M451.334072265625 20 l-1.1523 -3.2227 l-6.1719 0 l-1.1523 3.2227 l-2.0215 0 l5.0879 -13.809 l2.3438 0 l5.0879 13.809 l-2.0215 0 z M444.615472265625 15.0781 l4.9609 0 l-2.4805 -6.9629 z M465.65671328125 6.191000000000001 l0 1.748 l-3.4961 0 l0 12.061 l-1.9238 0 l0 -12.061 l-3.5059 0 l0 -1.748 l8.9258 0 z M470.594473046875 20 l0 -13.809 l1.9434 0 l0 13.809 l-1.9434 0 z M485.0049078125 20.18555 c-3.916 0 -6.9043 -2.6953 -6.9043 -7.0996 c0 -4.3945 2.9883 -7.0801 6.9043 -7.0801 c3.8965 0 6.8945 2.6855 6.8945 7.0801 c0 4.4043 -2.998 7.0996 -6.8945 7.0996 z M485.0049078125 18.3594 c2.7637 0 4.9512 -1.9141 4.9512 -5.2734 c0 -3.3301 -2.1875 -5.2441 -4.9512 -5.2441 c-2.7734 0 -4.9707 1.9141 -4.9707 5.2441 c0 3.3594 2.1973 5.2734 4.9707 5.2734 z M506.758783203125 6.191000000000001 l1.9336 0 l0 13.809 l-2.0996 0 l-7.2168 -10.957 l0 10.957 l-1.9238 0 l0 -13.809 l2.0801 0 l7.2266 10.908 l0 -10.908 z M516.30612734375 20.19531 c-0.6543 0 -1.2109 -0.53711 -1.2109 -1.2109 c0 -0.6543 0.55664 -1.2207 1.2109 -1.2207 c0.66406 0 1.2207 0.56641 1.2207 1.2207 c0 0.67383 -0.55664 1.2109 -1.2207 1.2109 z"></path></g></svg>