<svg width="24" height="24" viewBox="0 0 24 24" fill="none" xmlns="http://www.w3.org/2000/svg">
<path d="M6.05 16H5.2C4.74913 16 4.31673 15.8194 3.99792 15.4979C3.67911 15.1764 3.5 14.7404 3.5 14.2857V5.71429C3.5 5.25963 3.67911 4.82359 3.99792 4.5021C4.31673 4.18061 4.74913 4 5.2 4H18.8C19.2509 4 19.6833 4.18061 20.0021 4.5021C20.3209 4.82359 20.5 5.25963 20.5 5.71429V14.2857C20.5 14.7404 20.3209 15.1764 20.0021 15.4979C19.6833 15.8194 19.2509 16 18.8 16H17.95" stroke="currentColor" stroke-width="1.5" stroke-linecap="round" stroke-linejoin="round"/>
<path d="M12 15L16.5 20H7.5L12 15Z" stroke="currentColor" stroke-width="1.5" stroke-linecap="round" stroke-linejoin="round"/>
<rect x="6.75" y="10" width="1.5" height="3" rx="0.75" fill="currentColor"/>
<rect x="10.75" y="9" width="1.5" height="4" rx="0.75" fill="currentColor"/>
<rect x="14.75" y="7" width="1.5" height="6" rx="0.75" fill="currentColor"/>
</svg>
