<svg width="150" height="110" viewBox="0 0 150 110" fill="none" xmlns="http://www.w3.org/2000/svg">
<rect width="150" height="110" fill="white"/>
<circle cx="75" cy="55" r="47" fill="url(#paint0_linear_2356_25395)"/>
<circle cx="86.6063" cy="33.859" r="20" transform="rotate(21.1001 86.6063 33.859)" fill="#DDE0EE"/>
<ellipse cx="82.7933" cy="41.3261" rx="44" ry="14.717" transform="rotate(21.1001 82.7933 41.3261)" fill="url(#paint1_linear_2356_25395)"/>
<ellipse cx="82.1671" cy="42.9492" rx="44" ry="14.2144" transform="rotate(21.1001 82.1671 42.9492)" fill="url(#paint2_linear_2356_25395)"/>
<path fill-rule="evenodd" clip-rule="evenodd" d="M102.715 63.0648C113.613 64.4902 121.544 63.1262 123.217 58.7892C126.043 51.4651 109.956 38.436 87.2843 29.6879C72.7761 24.0896 59.0876 21.6011 50.3705 22.4542C58.9945 21.9223 71.8275 24.359 85.3731 29.5858C107.681 38.1936 123.473 51.1089 120.647 58.433C119.096 62.4531 112.258 63.9531 102.715 63.0648Z" fill="url(#paint3_linear_2356_25395)"/>
<ellipse cx="80.8985" cy="46.1467" rx="20" ry="7.44595" transform="rotate(21.1001 80.8985 46.1467)" fill="#535479"/>
<rect x="50" y="63" width="35" height="26" rx="4" fill="url(#paint4_linear_2356_25395)"/>
<path d="M46 64C46 61.7909 47.7909 60 50 60H77C79.2091 60 81 61.7909 81 64V82C81 84.2091 79.2091 86 77 86H50C47.7909 86 46 84.2091 46 82V64Z" fill="url(#paint5_linear_2356_25395)"/>
<path fill-rule="evenodd" clip-rule="evenodd" d="M60 66C58.8954 66 58 66.8954 58 68C58 69.1046 58.8954 70 60 70H72C73.1046 70 74 69.1046 74 68C74 66.8954 73.1046 66 72 66H60ZM60 75C58.8954 75 58 75.8954 58 77C58 78.1046 58.8954 79 60 79H72C73.1046 79 74 78.1046 74 77C74 75.8954 73.1046 75 72 75H60Z" fill="white"/>
<rect x="52" y="75" width="4" height="4" rx="2" fill="white"/>
<rect x="52" y="66" width="4" height="4" rx="2" fill="white"/>
<path d="M41.5769 80.2582L69.6355 41.7752L92.2474 50.318L86.909 97.7505L41.5769 80.2582Z" fill="url(#paint6_linear_2356_25395)"/>
<ellipse cx="80.8985" cy="46.1467" rx="12.1303" ry="4.51608" transform="rotate(21.1001 80.8985 46.1467)" fill="white"/>
<defs>
<linearGradient id="paint0_linear_2356_25395" x1="30" y1="100" x2="112.5" y2="24.5" gradientUnits="userSpaceOnUse">
<stop stop-color="#D2DAE9"/>
<stop offset="1" stop-color="#F7F9FF" stop-opacity="0"/>
</linearGradient>
<linearGradient id="paint1_linear_2356_25395" x1="82.7933" y1="26.609" x2="82.7933" y2="56.0431" gradientUnits="userSpaceOnUse">
<stop stop-color="#CDD1DD"/>
<stop offset="1" stop-color="#D2D7E5"/>
</linearGradient>
<linearGradient id="paint2_linear_2356_25395" x1="82.1671" y1="28.7348" x2="90.5675" y2="58.5471" gradientUnits="userSpaceOnUse">
<stop stop-color="#D2DAE9"/>
<stop offset="1" stop-color="#F7F9FF"/>
</linearGradient>
<linearGradient id="paint3_linear_2356_25395" x1="121.247" y1="57.5" x2="86.2288" y2="25.2156" gradientUnits="userSpaceOnUse">
<stop stop-color="#D2DAE9"/>
<stop offset="1" stop-color="#F7F9FF"/>
</linearGradient>
<linearGradient id="paint4_linear_2356_25395" x1="67.5" y1="63" x2="80.9304" y2="83.728" gradientUnits="userSpaceOnUse">
<stop stop-color="#D2DAE9"/>
<stop offset="1" stop-color="#F7F9FF"/>
</linearGradient>
<linearGradient id="paint5_linear_2356_25395" x1="63.5" y1="60" x2="76.9304" y2="80.728" gradientUnits="userSpaceOnUse">
<stop stop-color="#D2DAE9"/>
<stop offset="1" stop-color="#F7F9FF"/>
</linearGradient>
<linearGradient id="paint6_linear_2356_25395" x1="81.5299" y1="41.7385" x2="65.8444" y2="76.4297" gradientUnits="userSpaceOnUse">
<stop stop-color="white"/>
<stop offset="1" stop-color="white" stop-opacity="0"/>
</linearGradient>
</defs>
</svg>
